<?xml version="1.0" encoding="UTF-8" standalone="no"?>
<svg width="25px" height="97px" viewBox="0 0 25 97" version="1.1" xmlns="http://www.w3.org/2000/svg" xmlns:xlink="http://www.w3.org/1999/xlink">
    <!-- Generator: Sketch 3.7.1 (28215) - http://www.bohemiancoding.com/sketch -->
    <title>beer</title>
    <desc>Created with Sketch.</desc>
    <defs></defs>
    <g id="Page-1" stroke="none" stroke-width="1" fill="none" fill-rule="evenodd">
        <path d="M23.8632593,43.907 C22.9442593,41.911 21.3282593,39.884 21.1542593,39.63 C20.9802593,39.377 18.9042593,36.731 18.9042593,32.739 C18.9042593,28.747 18.5882593,21.745 18.1362593,17.207 C17.6842593,12.668 17.2572593,8.186 17.2402593,8.138 C17.2242593,8.091 17.1962593,7.845 17.0542593,7.786 C16.9102593,7.726 17.8722593,7.441 17.8722593,7.109 C17.8722593,6.776 17.7542593,6.004 17.5642593,5.421 C17.3742593,4.839 17.0642593,3.069 17.1012593,2.974 C17.2312593,2.986 17.7652593,2.962 17.8262593,2.95 C17.8852593,2.939 18.0282593,2.035 17.6112593,1.132 C17.1952593,0.229 16.2462593,0 15.2952593,0 L12.3382593,0 L12.2682593,0 L9.31125932,0 C8.36025932,0 7.41025932,0.229 6.99425932,1.132 C6.57825932,2.035 6.72125932,2.939 6.78025932,2.95 C6.84025932,2.962 7.37425932,2.986 7.50525932,2.974 C7.54125932,3.069 7.23225932,4.839 7.04225932,5.421 C6.85125932,6.003 6.73325932,6.775 6.73325932,7.109 C6.73325932,7.442 7.69525932,7.727 7.55225932,7.786 C7.41025932,7.845 7.38325932,8.091 7.36625932,8.138 C7.35025932,8.186 6.92325932,12.669 6.47125932,17.207 C6.02025932,21.745 5.70325932,28.747 5.70325932,32.739 C5.70325932,36.731 3.62825932,39.376 3.45425932,39.63 C3.27925932,39.884 1.66325932,41.911 0.745259324,43.907 C-0.173740676,45.903 0.0162593243,48.865 0.0162593243,48.865 C0.0162593243,48.865 0.435259324,81.386 0.435259324,82.716 C0.435259324,84.047 0.427259324,85.241 0.329259324,87.329 C0.218259324,91.866 0.775259324,94.163 2.11125932,94.998 C4.73225932,96.736 11.7562593,96.499 12.3022593,96.477 C12.8492593,96.498 19.8732593,96.736 22.4942593,94.998 C23.8302593,94.163 24.3872593,91.866 24.2752593,87.329 C24.1772593,85.241 24.1692593,84.047 24.1692593,82.716 C24.1692593,81.386 24.5892593,48.865 24.5892593,48.865 C24.5892593,48.865 24.7812593,45.902 23.8632593,43.907 L23.8632593,43.907 Z" id="beer" fill="#000000"></path>
    </g>
</svg>