<?xml version="1.0" encoding="UTF-8" standalone="no"?>
<svg width="101px" height="100px" viewBox="0 0 101 100" version="1.1" xmlns="http://www.w3.org/2000/svg" xmlns:xlink="http://www.w3.org/1999/xlink">
    <!-- Generator: Sketch 3.7.1 (28215) - http://www.bohemiancoding.com/sketch -->
    <title>cocktail</title>
    <desc>Created with Sketch.</desc>
    <defs></defs>
    <g id="Page-1" stroke="none" stroke-width="1" fill="none" fill-rule="evenodd">
        <path d="M80.8348254,87.847 L56.7928254,87.847 L56.7928254,53.567 L100.186825,0 L0.385825388,0 L44.5728254,53.302 L44.5728254,87.847 L20.9918254,87.847 C12.8408254,87.866 12.8408254,100 20.9918254,100 L80.8348254,100 C88.9358254,100 88.8688254,87.865 80.8348254,87.847 L80.8348254,87.847 Z M50.5178254,30.055 C50.5098254,25.794 53.9758254,22.327 58.2478254,22.325 C62.5238254,22.327 65.9918254,25.794 65.9728254,30.055 C65.9928254,34.347 62.5248254,37.811 58.2478254,37.783 C53.9748254,37.811 50.5098254,34.348 50.5178254,30.055 L50.5178254,30.055 Z" id="cocktail" fill="#000000"></path>
    </g>
</svg>