<?xml version="1.0" encoding="UTF-8" standalone="no"?>
<svg width="73px" height="86px" viewBox="0 0 73 86" version="1.1" xmlns="http://www.w3.org/2000/svg" xmlns:xlink="http://www.w3.org/1999/xlink">
    <!-- Generator: Sketch 3.7.1 (28215) - http://www.bohemiancoding.com/sketch -->
    <title>shot</title>
    <desc>Created with Sketch.</desc>
    <defs></defs>
    <g id="Page-1" stroke="none" stroke-width="1" fill="none" fill-rule="evenodd">
        <path d="M71.5923367,0.003 L71.6003367,0 L0.589336702,0 L0.592336702,0.003 C0.183336702,0.036 -0.0806632981,0.387 0.0223367019,1.345 C0.351336702,4.372 10.9003367,79.948 11.2283367,81.91 C11.2283367,86 22.3603367,86 36.0913367,86 C49.8263367,86 60.9593367,86 60.9593367,81.91 C61.2883367,79.947 71.8393367,4.371 72.1643367,1.345 C72.2683367,0.387 72.0023367,0.036 71.5923367,0.003 L71.5923367,0.003 Z M58.3433367,54.392 C57.0063367,59.457 48.3823367,58.972 36.0913367,58.972 C23.8073367,58.972 15.1803367,59.457 13.8463367,54.392 C12.2923367,48.501 3.0473367,2.289 3.0473367,2.289 L69.1393367,2.289 C69.1393367,2.289 59.8943367,48.501 58.3433367,54.392 L58.3433367,54.392 Z" id="shot" fill="#000000"></path>
    </g>
</svg>