<?xml version="1.0" encoding="UTF-8" standalone="no"?>
<svg width="46px" height="100px" viewBox="0 0 46 100" version="1.1" xmlns="http://www.w3.org/2000/svg" xmlns:xlink="http://www.w3.org/1999/xlink">
    <!-- Generator: Sketch 3.7.1 (28215) - http://www.bohemiancoding.com/sketch -->
    <title>wine</title>
    <desc>Created with Sketch.</desc>
    <defs></defs>
    <g id="Page-1" stroke="none" stroke-width="1" fill="none" fill-rule="evenodd">
        <path d="M41.9208254,98 C41.9208254,98 25.9208254,97 24.9208254,89 L24.9208254,67 C23.9208254,47 57.9208254,57 39.9208254,0 L22.9208254,0 L5.92082539,0 C-12.0791746,57 21.9208254,47 20.9208254,67 L20.9208254,89 C19.9208254,97 3.92082539,98 3.92082539,98 C3.36782539,98 2.92082539,98.447 2.92082539,99 C2.92082539,99.553 3.36782539,100 3.92082539,100 L20.9208254,100 L24.9208254,100 L41.9208254,100 C42.4738254,100 42.9208254,99.553 42.9208254,99 C42.9208254,98.447 42.4738254,98 41.9208254,98 L41.9208254,98 Z" id="wine" fill="#000000"></path>
    </g>
</svg>